<svg width="427" height="101" viewBox="0 0 427 101" fill="none" xmlns="http://www.w3.org/2000/svg">
<path d="M28.6855 100.591C23.2168 100.591 18.5293 99.8097 14.623 98.2472C10.7405 96.7083 7.72201 94.5777 5.56765 91.8551C3.43697 89.1563 2.24142 86.0549 1.981 82.5511H20.873C21.0624 83.7112 21.5359 84.6463 22.2935 85.3565C23.0511 86.0668 24.0217 86.5758 25.2054 86.8835C26.4128 87.215 27.7623 87.3807 29.2537 87.3807C31.7869 87.3807 33.882 86.7652 35.5392 85.5341C37.2201 84.303 38.0605 82.0777 38.0605 78.858V69.625H37.4924C36.7821 71.4716 35.6931 73.0459 34.2253 74.348C32.7575 75.6264 30.9938 76.6089 28.9341 77.2955C26.8745 77.9583 24.6136 78.2898 22.1515 78.2898C18.2689 78.2898 14.6941 77.3902 11.427 75.5909C8.18365 73.7917 5.57949 70.9389 3.61452 67.0327C1.67324 63.1264 0.702593 58.0246 0.702593 51.7273C0.702593 45.1458 1.72058 39.7955 3.75657 35.6761C5.81623 31.5568 8.46774 28.5384 11.7111 26.6207C14.9782 24.7031 18.4109 23.7443 22.0094 23.7443C24.7083 23.7443 27.0757 24.2178 29.1117 25.1648C31.1477 26.0881 32.8522 27.331 34.2253 28.8935C35.5984 30.4323 36.6401 32.125 37.3503 33.9716H37.7765V24.4545H57.3787V78.858C57.3787 83.4744 56.1832 87.3925 53.7921 90.6122C51.4247 93.8556 48.0866 96.3295 43.7779 98.0341C39.4692 99.7386 34.4384 100.591 28.6855 100.591ZM29.3958 64.3693C31.195 64.3693 32.7338 63.8722 34.0123 62.8778C35.3143 61.8598 36.3087 60.4157 36.9952 58.5455C37.7054 56.6515 38.0605 54.3788 38.0605 51.7273C38.0605 49.0284 37.7054 46.7202 36.9952 44.8026C36.3087 42.8613 35.3143 41.3816 34.0123 40.3636C32.7338 39.322 31.195 38.8011 29.3958 38.8011C27.5965 38.8011 26.0577 39.322 24.7793 40.3636C23.5246 41.3816 22.5539 42.8613 21.8674 44.8026C21.2045 46.7202 20.873 49.0284 20.873 51.7273C20.873 54.4261 21.2045 56.7225 21.8674 58.6165C22.5539 60.4867 23.5246 61.919 24.7793 62.9134C26.0577 63.884 27.5965 64.3693 29.3958 64.3693ZM67.3485 79V24.4545H86.9508V79H67.3485ZM77.1497 18.7727C74.4982 18.7727 72.2254 17.8968 70.3315 16.1449C68.4376 14.393 67.4906 12.286 67.4906 9.82386C67.4906 7.36174 68.4376 5.25473 70.3315 3.50284C72.2254 1.75095 74.4982 0.875 77.1497 0.875C79.8249 0.875 82.0976 1.75095 83.9679 3.50284C85.8618 5.25473 86.8088 7.36174 86.8088 9.82386C86.8088 12.286 85.8618 14.393 83.9679 16.1449C82.0976 17.8968 79.8249 18.7727 77.1497 18.7727ZM96.9384 79V24.4545H115.972V34.8239H116.541C117.535 30.9886 119.109 28.1832 121.264 26.4077C123.442 24.6321 125.987 23.7443 128.899 23.7443C129.751 23.7443 130.591 23.8153 131.42 23.9574C132.272 24.0758 133.089 24.2533 133.87 24.4901V41.2159C132.9 40.8845 131.704 40.6359 130.284 40.4702C128.863 40.3045 127.644 40.2216 126.626 40.2216C124.708 40.2216 122.98 40.6596 121.441 41.5355C119.926 42.3878 118.731 43.5952 117.855 45.1577C116.979 46.6965 116.541 48.5076 116.541 50.5909V79H96.9384ZM159.9 6.27273V79H140.298V6.27273H159.9ZM237.501 33.5455H217.473C217.331 31.8883 216.952 30.3849 216.336 29.0355C215.745 27.6861 214.916 26.526 213.851 25.5554C212.809 24.5611 211.542 23.8035 210.051 23.2827C208.559 22.7382 206.867 22.4659 204.973 22.4659C201.658 22.4659 198.853 23.2708 196.557 24.8807C194.284 26.4905 192.556 28.7988 191.372 31.8054C190.212 34.812 189.632 38.4223 189.632 42.6364C189.632 47.0871 190.224 50.8158 191.407 53.8224C192.615 56.8054 194.355 59.0545 196.628 60.5696C198.9 62.0611 201.635 62.8068 204.831 62.8068C206.654 62.8068 208.287 62.5819 209.731 62.1321C211.175 61.6586 212.43 60.9839 213.496 60.108C214.561 59.232 215.425 58.1785 216.088 56.9474C216.774 55.6927 217.236 54.2841 217.473 52.7216L237.501 52.8636C237.265 55.9413 236.4 59.0781 234.909 62.2741C233.417 65.4465 231.299 68.3821 228.552 71.081C225.83 73.7562 222.456 75.9105 218.432 77.544C214.407 79.1776 209.731 79.9943 204.405 79.9943C197.729 79.9943 191.739 78.562 186.436 75.6974C181.157 72.8329 176.978 68.6188 173.9 63.0554C170.846 57.492 169.319 50.6856 169.319 42.6364C169.319 34.5398 170.882 27.7216 174.007 22.1818C177.132 16.6184 181.346 12.4162 186.649 9.57528C191.952 6.7107 197.871 5.27841 204.405 5.27841C208.997 5.27841 213.223 5.90577 217.082 7.16051C220.941 8.41524 224.327 10.25 227.238 12.6648C230.15 15.0559 232.494 18.0033 234.27 21.5071C236.045 25.0109 237.122 29.0237 237.501 33.5455ZM273.021 79.9943C267.103 79.9943 262.037 78.8224 257.823 76.4787C253.609 74.1113 250.377 70.8205 248.128 66.6065C245.879 62.3688 244.754 57.4564 244.754 51.8693C244.754 46.2822 245.879 41.3816 248.128 37.1676C250.377 32.9299 253.609 29.6392 257.823 27.2955C262.037 24.928 267.103 23.7443 273.021 23.7443C278.94 23.7443 284.006 24.928 288.22 27.2955C292.434 29.6392 295.666 32.9299 297.915 37.1676C300.164 41.3816 301.289 46.2822 301.289 51.8693C301.289 57.4564 300.164 62.3688 297.915 66.6065C295.666 70.8205 292.434 74.1113 288.22 76.4787C284.006 78.8224 278.94 79.9943 273.021 79.9943ZM273.164 65.5057C274.821 65.5057 276.253 64.9493 277.46 63.8366C278.668 62.724 279.603 61.1378 280.266 59.0781C280.929 57.0185 281.26 54.5682 281.26 51.7273C281.26 48.8627 280.929 46.4124 280.266 44.3764C279.603 42.3168 278.668 40.7306 277.46 39.6179C276.253 38.5052 274.821 37.9489 273.164 37.9489C271.412 37.9489 269.908 38.5052 268.654 39.6179C267.399 40.7306 266.44 42.3168 265.777 44.3764C265.114 46.4124 264.783 48.8627 264.783 51.7273C264.783 54.5682 265.114 57.0185 265.777 59.0781C266.44 61.1378 267.399 62.724 268.654 63.8366C269.908 64.9493 271.412 65.5057 273.164 65.5057ZM328.987 79.7102C325.105 79.7102 321.53 78.6922 318.263 76.6562C315.02 74.6203 312.415 71.5308 310.45 67.3878C308.509 63.2448 307.539 58.0246 307.539 51.7273C307.539 45.1458 308.557 39.7955 310.593 35.6761C312.652 31.5568 315.304 28.5384 318.547 26.6207C321.814 24.7031 325.247 23.7443 328.845 23.7443C331.544 23.7443 333.912 24.2178 335.948 25.1648C337.984 26.0881 339.688 27.331 341.061 28.8935C342.434 30.4323 343.476 32.125 344.186 33.9716H344.47V6.27273H364.073V79H344.612V70.0511H344.186C343.429 71.8977 342.34 73.5549 340.919 75.0227C339.522 76.4669 337.818 77.6151 335.806 78.4673C333.817 79.2959 331.544 79.7102 328.987 79.7102ZM336.232 64.6534C338.031 64.6534 339.57 64.1326 340.848 63.0909C342.15 62.0256 343.145 60.5341 343.831 58.6165C344.541 56.6752 344.896 54.3788 344.896 51.7273C344.896 49.0284 344.541 46.7202 343.831 44.8026C343.145 42.8613 342.15 41.3816 340.848 40.3636C339.57 39.322 338.031 38.8011 336.232 38.8011C334.432 38.8011 332.894 39.322 331.615 40.3636C330.361 41.3816 329.39 42.8613 328.703 44.8026C328.04 46.7202 327.709 49.0284 327.709 51.7273C327.709 54.4261 328.04 56.7462 328.703 58.6875C329.39 60.6051 330.361 62.0848 331.615 63.1264C332.894 64.1444 334.432 64.6534 336.232 64.6534ZM399.833 79.9943C394.009 79.9943 388.99 78.8816 384.776 76.6562C380.585 74.4072 377.354 71.1875 375.081 66.9972C372.832 62.7831 371.708 57.7405 371.708 51.8693C371.708 46.2348 372.844 41.3106 375.117 37.0966C377.389 32.8826 380.597 29.6037 384.74 27.2599C388.883 24.9162 393.772 23.7443 399.406 23.7443C403.526 23.7443 407.254 24.3835 410.593 25.6619C413.931 26.9403 416.783 28.7988 419.151 31.2372C421.518 33.652 423.341 36.5876 424.619 40.044C425.898 43.5005 426.537 47.3949 426.537 51.7273V56.2727H377.816V45.4773H408.497C408.474 43.9148 408.071 42.5417 407.29 41.358C406.532 40.1506 405.503 39.2154 404.2 38.5526C402.922 37.866 401.466 37.5227 399.833 37.5227C398.246 37.5227 396.79 37.866 395.465 38.5526C394.139 39.2154 393.074 40.1387 392.269 41.3224C391.487 42.5062 391.073 43.8911 391.026 45.4773V57.125C391.026 58.8769 391.393 60.4394 392.127 61.8125C392.861 63.1856 393.914 64.2628 395.287 65.044C396.66 65.8253 398.317 66.2159 400.259 66.2159C401.608 66.2159 402.839 66.0265 403.952 65.6477C405.088 65.2689 406.059 64.7244 406.864 64.0142C407.669 63.2803 408.261 62.4044 408.639 61.3864H426.537C425.922 65.1742 424.466 68.465 422.169 71.2585C419.873 74.0284 416.831 76.1828 413.043 77.7216C409.279 79.2367 404.875 79.9943 399.833 79.9943Z" fill="url(#paint0_linear_117_364)"/>
<defs>
<linearGradient id="paint0_linear_117_364" x1="203.683" y1="-103.412" x2="326.689" y2="163.27" gradientUnits="userSpaceOnUse">
<stop stop-color="#BFB8E9"/>
<stop offset="1" stop-color="#8EB1DF"/>
</linearGradient>
</defs>
</svg>
