<svg width="419" height="101" viewBox="0 0 419 101" fill="none" xmlns="http://www.w3.org/2000/svg">
<path d="M0.724609 79V6.27273H32.1167C37.5144 6.27273 42.2374 7.25521 46.2857 9.22017C50.334 11.1851 53.4827 14.0142 55.7317 17.7074C57.9808 21.4006 59.1053 25.8276 59.1053 30.9886C59.1053 36.197 57.9453 40.5885 55.6252 44.1634C53.3288 47.7382 50.0972 50.437 45.9306 52.2599C41.7876 54.0829 36.9462 54.9943 31.4064 54.9943H12.6564V39.6534H27.4292C29.7492 39.6534 31.726 39.3693 33.3596 38.8011C35.0168 38.2093 36.2833 37.2741 37.1593 35.9957C38.0589 34.7173 38.5087 33.0483 38.5087 30.9886C38.5087 28.9053 38.0589 27.2126 37.1593 25.9105C36.2833 24.5848 35.0168 23.6141 33.3596 22.9986C31.726 22.3594 29.7492 22.0398 27.4292 22.0398H20.4689V79H0.724609ZM43.3382 45.6193L61.5201 79H40.0712L22.3155 45.6193H43.3382ZM92.7701 79.9943C86.9462 79.9943 81.9273 78.8816 77.7132 76.6562C73.5229 74.4072 70.2914 71.1875 68.0186 66.9972C65.7696 62.7831 64.6451 57.7405 64.6451 51.8693C64.6451 46.2348 65.7814 41.3106 68.0542 37.0966C70.3269 32.8826 73.5347 29.6037 77.6777 27.2599C81.8207 24.9162 86.7095 23.7443 92.3439 23.7443C96.4632 23.7443 100.192 24.3835 103.53 25.6619C106.868 26.9403 109.721 28.7988 112.088 31.2372C114.456 33.652 116.279 36.5876 117.557 40.044C118.835 43.5005 119.475 47.3949 119.475 51.7273V56.2727H70.753V45.4773H101.435C101.411 43.9148 101.009 42.5417 100.227 41.358C99.4699 40.1506 98.44 39.2154 97.138 38.5526C95.8596 37.866 94.4036 37.5227 92.7701 37.5227C91.1839 37.5227 89.7279 37.866 88.4022 38.5526C87.0764 39.2154 86.0111 40.1387 85.2061 41.3224C84.4249 42.5062 84.0106 43.8911 83.9632 45.4773V57.125C83.9632 58.8769 84.3302 60.4394 85.0641 61.8125C85.798 63.1856 86.8515 64.2628 88.2246 65.044C89.5977 65.8253 91.2549 66.2159 93.1962 66.2159C94.5456 66.2159 95.7767 66.0265 96.8894 65.6477C98.0257 65.2689 98.9964 64.7244 99.8013 64.0142C100.606 63.2803 101.198 62.4044 101.577 61.3864H119.475C118.859 65.1742 117.403 68.465 115.107 71.2585C112.81 74.0284 109.768 76.1828 105.98 77.7216C102.216 79.2367 97.8127 79.9943 92.7701 79.9943ZM153.752 100.591C148.283 100.591 143.596 99.8097 139.689 98.2472C135.807 96.7083 132.788 94.5777 130.634 91.8551C128.503 89.1563 127.308 86.0549 127.047 82.5511H145.939C146.129 83.7112 146.602 84.6463 147.36 85.3565C148.117 86.0668 149.088 86.5758 150.272 86.8835C151.479 87.215 152.829 87.3807 154.32 87.3807C156.853 87.3807 158.948 86.7652 160.606 85.5341C162.287 84.303 163.127 82.0777 163.127 78.858V69.625H162.559C161.849 71.4716 160.76 73.0459 159.292 74.348C157.824 75.6264 156.06 76.6089 154.001 77.2955C151.941 77.9583 149.68 78.2898 147.218 78.2898C143.335 78.2898 139.76 77.3902 136.493 75.5909C133.25 73.7917 130.646 70.9389 128.681 67.0327C126.74 63.1264 125.769 58.0246 125.769 51.7273C125.769 45.1458 126.787 39.7955 128.823 35.6761C130.883 31.5568 133.534 28.5384 136.778 26.6207C140.045 24.7031 143.477 23.7443 147.076 23.7443C149.775 23.7443 152.142 24.2178 154.178 25.1648C156.214 26.0881 157.919 27.331 159.292 28.8935C160.665 30.4323 161.707 32.125 162.417 33.9716H162.843V24.4545H182.445V78.858C182.445 83.4744 181.25 87.3925 178.858 90.6122C176.491 93.8556 173.153 96.3295 168.844 98.0341C164.536 99.7386 159.505 100.591 153.752 100.591ZM154.462 64.3693C156.261 64.3693 157.8 63.8722 159.079 62.8778C160.381 61.8598 161.375 60.4157 162.062 58.5455C162.772 56.6515 163.127 54.3788 163.127 51.7273C163.127 49.0284 162.772 46.7202 162.062 44.8026C161.375 42.8613 160.381 41.3816 159.079 40.3636C157.8 39.322 156.261 38.8011 154.462 38.8011C152.663 38.8011 151.124 39.322 149.846 40.3636C148.591 41.3816 147.62 42.8613 146.934 44.8026C146.271 46.7202 145.939 49.0284 145.939 51.7273C145.939 54.4261 146.271 56.7225 146.934 58.6165C147.62 60.4867 148.591 61.919 149.846 62.9134C151.124 63.884 152.663 64.3693 154.462 64.3693ZM192.415 79V24.4545H212.017V79H192.415ZM202.216 18.7727C199.565 18.7727 197.292 17.8968 195.398 16.1449C193.504 14.393 192.557 12.286 192.557 9.82386C192.557 7.36174 193.504 5.25473 195.398 3.50284C197.292 1.75095 199.565 0.875 202.216 0.875C204.891 0.875 207.164 1.75095 209.034 3.50284C210.928 5.25473 211.875 7.36174 211.875 9.82386C211.875 12.286 210.928 14.393 209.034 16.1449C207.164 17.8968 204.891 18.7727 202.216 18.7727ZM271.863 42.2102H253.823C253.728 41.0975 253.338 40.1387 252.651 39.3338C251.965 38.5289 251.077 37.9134 249.988 37.4872C248.922 37.0374 247.739 36.8125 246.437 36.8125C244.756 36.8125 243.312 37.1203 242.104 37.7358C240.897 38.3513 240.305 39.2273 240.329 40.3636C240.305 41.1686 240.648 41.9143 241.358 42.6009C242.092 43.2874 243.501 43.8201 245.584 44.1989L256.664 46.1875C262.251 47.2055 266.406 48.9219 269.128 51.3366C271.875 53.7277 273.26 56.9356 273.283 60.9602C273.26 64.8428 272.099 68.2164 269.803 71.081C267.53 73.9219 264.417 76.1236 260.464 77.6861C256.534 79.2249 252.047 79.9943 247.005 79.9943C238.671 79.9943 232.149 78.2898 227.438 74.8807C222.751 71.4716 220.135 66.9735 219.59 61.3864H239.05C239.311 63.1146 240.163 64.4522 241.607 65.3991C243.075 66.3224 244.921 66.7841 247.147 66.7841C248.946 66.7841 250.426 66.4763 251.586 65.8608C252.769 65.2453 253.373 64.3693 253.397 63.233C253.373 62.1913 252.852 61.3627 251.834 60.7472C250.84 60.1316 249.278 59.6345 247.147 59.2557L237.488 57.5511C231.924 56.5805 227.758 54.7339 224.988 52.0114C222.218 49.2888 220.845 45.785 220.868 41.5C220.845 37.7121 221.839 34.5043 223.851 31.8764C225.887 29.2249 228.787 27.2126 232.552 25.8395C236.34 24.4427 240.826 23.7443 246.01 23.7443C253.894 23.7443 260.108 25.3778 264.654 28.6449C269.223 31.9119 271.626 36.4337 271.863 42.2102ZM313.322 24.4545V38.6591H277.385V24.4545H313.322ZM284.345 11.3864H303.947V61.4574C303.947 62.215 304.077 62.8542 304.338 63.375C304.598 63.8722 305.001 64.2509 305.545 64.5114C306.09 64.7481 306.788 64.8665 307.64 64.8665C308.232 64.8665 308.919 64.7955 309.7 64.6534C310.505 64.5114 311.097 64.393 311.476 64.2983L314.317 78.0767C313.441 78.3371 312.186 78.6567 310.552 79.0355C308.943 79.4143 307.025 79.6629 304.8 79.7812C300.301 80.018 296.525 79.5563 293.471 78.3963C290.417 77.2126 288.121 75.3542 286.582 72.821C285.043 70.2879 284.298 67.1155 284.345 63.304V11.3864ZM346.872 79.9943C341.048 79.9943 336.029 78.8816 331.815 76.6562C327.624 74.4072 324.393 71.1875 322.12 66.9972C319.871 62.7831 318.747 57.7405 318.747 51.8693C318.747 46.2348 319.883 41.3106 322.156 37.0966C324.428 32.8826 327.636 29.6037 331.779 27.2599C335.922 24.9162 340.811 23.7443 346.445 23.7443C350.565 23.7443 354.294 24.3835 357.632 25.6619C360.97 26.9403 363.822 28.7988 366.19 31.2372C368.557 33.652 370.38 36.5876 371.659 40.044C372.937 43.5005 373.576 47.3949 373.576 51.7273V56.2727H324.855V45.4773H355.536C355.513 43.9148 355.11 42.5417 354.329 41.358C353.571 40.1506 352.542 39.2154 351.24 38.5526C349.961 37.866 348.505 37.5227 346.872 37.5227C345.285 37.5227 343.829 37.866 342.504 38.5526C341.178 39.2154 340.113 40.1387 339.308 41.3224C338.526 42.5062 338.112 43.8911 338.065 45.4773V57.125C338.065 58.8769 338.432 60.4394 339.166 61.8125C339.9 63.1856 340.953 64.2628 342.326 65.044C343.699 65.8253 345.356 66.2159 347.298 66.2159C348.647 66.2159 349.878 66.0265 350.991 65.6477C352.127 65.2689 353.098 64.7244 353.903 64.0142C354.708 63.2803 355.3 62.4044 355.678 61.3864H373.576C372.961 65.1742 371.505 68.465 369.208 71.2585C366.912 74.0284 363.87 76.1828 360.082 77.7216C356.318 79.2367 351.914 79.9943 346.872 79.9943ZM381.575 79V24.4545H400.609V34.8239H401.177C402.172 30.9886 403.746 28.1832 405.9 26.4077C408.078 24.6321 410.623 23.7443 413.535 23.7443C414.388 23.7443 415.228 23.8153 416.057 23.9574C416.909 24.0758 417.726 24.2533 418.507 24.4901V41.2159C417.536 40.8845 416.341 40.6359 414.92 40.4702C413.5 40.3045 412.281 40.2216 411.263 40.2216C409.345 40.2216 407.617 40.6596 406.078 41.5355C404.563 42.3878 403.367 43.5952 402.491 45.1577C401.615 46.6965 401.177 48.5076 401.177 50.5909V79H381.575Z" fill="url(#paint0_linear_203_562)"/>
<defs>
<linearGradient id="paint0_linear_203_562" x1="198.387" y1="-103.412" x2="323.065" y2="161.278" gradientUnits="userSpaceOnUse">
<stop stop-color="#BFB8E9"/>
<stop offset="1" stop-color="#8EB1DF"/>
</linearGradient>
</defs>
</svg>
