<svg width="214" height="170" viewBox="0 0 214 170" fill="none" xmlns="http://www.w3.org/2000/svg">
<path d="M107.18 75.1577L112.884 108.018L131.617 83.1477L123.666 110.507L143.868 95.154L133.346 115.425L150.156 105.452C142.334 122.368 135.517 131.851 107.18 139.557C78.8434 131.851 72.0266 122.368 64.2048 105.452L81.015 115.416L70.4926 95.1454L90.6944 110.499L82.7433 83.1392L101.476 108.018L107.18 75.1577Z" fill="#0A0D36"/>
<path d="M77.4929 64.1555C68.9043 64.1555 63.7835 60.5082 63.7835 54.3723V39.6882H70.9031V54.1403C70.9031 57.702 73.2582 59.6588 77.5579 59.6588C81.9546 59.6588 84.2881 57.7794 84.2881 54.2347V39.6882H91.4508V54.2778C91.4508 60.371 86.1031 64.1555 77.4929 64.1555Z" fill="#0A0D36"/>
<path d="M107.45 63.7438H97.5112V39.6882H107.601C114.98 39.6882 119.042 41.9626 119.042 46.0818C119.042 48.2446 117.616 49.918 114.905 50.9307C118.545 51.9521 120.393 53.8573 120.393 56.6206C120.393 61.2207 115.801 63.7524 107.45 63.7524M104.382 59.7358H107.45C110.216 59.7358 113.511 59.178 113.511 56.492C113.511 53.7286 110.162 53.1362 107.353 53.1362H104.382V59.7358ZM104.382 49.3602H106.964C110.432 49.3602 112.344 48.3305 112.344 46.4596C112.344 44.6144 110.67 43.7219 107.245 43.7219H104.382V49.3602Z" fill="#0A0D36"/>
<path d="M140.325 64.1556C130.526 64.1556 124.195 59.2897 124.195 51.7548C124.195 44.3055 130.753 39.2937 140.519 39.2937C144.138 39.2937 147.185 39.8601 149.832 41.0271L150.058 41.1301L149 46.0305L148.535 45.7817C145.932 44.3999 143.458 43.7562 140.757 43.7562C134.934 43.7562 131.455 46.7342 131.455 51.7291C131.455 56.6293 135.053 59.6674 140.854 59.6674C143.598 59.6674 146.31 59.0152 149.119 57.6676L149.583 57.4444L150.588 62.0102L150.361 62.1132C147.466 63.4263 143.901 64.1556 140.314 64.1556" fill="#0A0D36"/>
<path d="M107.18 144.655C73.7226 137.129 57.7555 119.579 57.7555 94.5705V35.3544H156.605V94.5705C156.605 119.587 140.638 137.129 107.18 144.664M53.7043 32.1362V94.9737C53.7043 121.381 71.7888 140.493 107.18 147.994C142.572 140.493 160.656 121.381 160.656 94.9737V32.1362H53.7043Z" fill="#0A0D36"/>
<path d="M107.18 72.2657C114.635 72.2657 115.639 74.6687 121.646 74.6431C127.631 74.6687 128.657 72.2657 136.111 72.2657C143.566 72.2657 144.592 74.6687 150.588 74.6431V69.1248C144.603 69.1591 143.577 66.7817 136.111 66.7817C128.646 66.7817 127.642 69.1591 121.657 69.1248C115.65 69.1591 114.645 66.7817 107.191 66.7817C99.737 66.7817 98.7213 69.1591 92.7255 69.1248C86.7406 69.1591 85.7141 66.7817 78.2601 66.7817C70.8058 66.7817 69.7685 69.1591 63.7835 69.1248V74.6431C69.7685 74.6687 70.795 72.2657 78.2601 72.2657C85.7248 72.2657 86.7406 74.6687 92.7255 74.6431C98.732 74.6687 99.737 72.2657 107.191 72.2657" fill="#0A0D36"/>
<path d="M111.901 82.238C115.499 82.9245 117.206 84.229 121.646 84.2031C127.631 84.2376 128.657 81.826 136.111 81.826C143.566 81.826 144.592 84.229 150.588 84.2031V78.6849C144.603 78.7194 143.577 76.342 136.111 76.342C128.646 76.342 127.631 78.7108 121.646 78.6849C116.828 78.7108 115.218 77.1917 110.918 76.5823L111.901 82.238Z" fill="#0A0D36"/>
<path d="M92.7148 84.2031C97.1549 84.229 98.8617 82.9159 102.459 82.238L103.442 76.5908C99.1426 77.1917 97.5439 78.7194 92.7148 78.6934C86.7298 78.7279 85.7033 76.3506 78.2493 76.3506C70.795 76.3506 69.7577 78.7194 63.7835 78.6934V84.2116C69.7685 84.2461 70.795 81.8346 78.2493 81.8346C85.7033 81.8346 86.7298 84.2376 92.7148 84.2116" fill="#0A0D36"/>
<path d="M113.641 92.2018C115.671 92.7596 117.238 93.4375 119.658 93.6778L123.828 88.1425C123.18 88.2112 122.467 88.254 121.668 88.2455C117.541 88.2711 115.78 87.1555 112.658 86.4519L113.641 92.2018Z" fill="#0A0D36"/>
<path d="M132.73 91.5923C133.702 91.4722 134.815 91.3951 136.122 91.3951C143.577 91.3951 144.603 93.7981 150.588 93.7722V88.2454C144.603 88.2796 143.577 85.9026 136.122 85.9026C135.495 85.9026 134.912 85.9197 134.361 85.9539L132.73 91.5923Z" fill="#0A0D36"/>
<path d="M81.6306 91.5923L79.9992 85.9625C79.459 85.9283 78.8757 85.9111 78.2493 85.9111C70.795 85.9111 69.7577 88.2796 63.7727 88.2539V93.7722C69.7577 93.7981 70.7842 91.3951 78.2493 91.3951C79.5564 91.3951 80.6691 91.4721 81.6414 91.5926" fill="#0A0D36"/>
<path d="M94.7132 93.6778C97.1333 93.4375 98.6889 92.7596 100.731 92.2018L101.725 86.4604C98.6023 87.1555 96.8417 88.2711 92.7147 88.254C91.9152 88.254 91.2023 88.2198 90.5432 88.151L94.7132 93.6778Z" fill="#0A0D36"/>
</svg>
