<svg width="114" height="108" viewBox="0 0 114 108" fill="none" xmlns="http://www.w3.org/2000/svg">
<path d="M57.0956 47.7473L60.1342 68.6236L70.1133 52.8233L65.8777 70.2046L76.6396 60.4508L71.0342 73.3287L79.989 66.9933C75.8224 77.7394 72.1911 83.764 57.0956 88.66C42.0003 83.764 38.3689 77.7394 34.2021 66.9933L43.1571 73.3233L37.5517 60.4454L48.3134 70.1991L44.0778 52.8179L54.0569 68.6236L57.0956 47.7473Z" fill="#0A0D36"/>
<path d="M41.2816 40.7576C36.7064 40.7576 33.9785 38.4404 33.9785 34.5423V25.2136H37.7712V34.3949C37.7712 36.6577 39.0258 37.9008 41.3163 37.9008C43.6584 37.9008 44.9015 36.7068 44.9015 34.4549V25.2136H48.7172V34.4823C48.7172 38.3532 45.8684 40.7576 41.2816 40.7576Z" fill="#0A0D36"/>
<path d="M57.24 40.496H51.9453V25.2136H57.3205C61.2512 25.2136 63.4152 26.6585 63.4152 29.2754C63.4152 30.6494 62.6554 31.7126 61.211 32.3559C63.1504 33.0048 64.1346 34.2151 64.1346 35.9707C64.1346 38.8931 61.6886 40.5014 57.24 40.5014M55.6056 37.9498H57.24C58.7133 37.9498 60.4686 37.5954 60.4686 35.8889C60.4686 34.1334 58.6846 33.7571 57.1881 33.7571H55.6056V37.9498ZM55.6056 31.3582H56.9811C58.8285 31.3582 59.8469 30.704 59.8469 29.5154C59.8469 28.3432 58.9549 27.7762 57.1307 27.7762H55.6056V31.3582Z" fill="#0A0D36"/>
<path d="M74.7523 40.7575C69.5327 40.7575 66.1602 37.6662 66.1602 32.8793C66.1602 28.1468 69.6534 24.9629 74.856 24.9629C76.7839 24.9629 78.4068 25.3227 79.8168 26.0641L79.9375 26.1295L79.3737 29.2428L79.1261 29.0847C77.7393 28.2068 76.4213 27.7979 74.9825 27.7979C71.8805 27.7979 70.0274 29.6898 70.0274 32.863C70.0274 35.9761 71.9439 37.9062 75.0343 37.9062C76.4962 37.9062 77.9406 37.4918 79.437 36.6357L79.6844 36.494L80.2196 39.3946L80.0988 39.46C78.5565 40.2942 76.6573 40.7575 74.7466 40.7575" fill="#0A0D36"/>
<path d="M57.0955 91.8985C39.2723 87.1171 30.7665 75.9676 30.7665 60.0801V22.4605H83.4248V60.0801C83.4248 75.973 74.9189 87.1171 57.0955 91.904M28.6084 20.416V60.3363C28.6084 77.1125 38.2422 89.2542 57.0955 94.0195C75.9489 89.2542 85.5829 77.1125 85.5829 60.3363V20.416H28.6084Z" fill="#0A0D36"/>
<path d="M57.0964 45.91C61.0674 45.91 61.6025 47.4366 64.8025 47.4203C67.9907 47.4366 68.5373 45.91 72.5083 45.91C76.4793 45.91 77.026 47.4366 80.22 47.4203V43.9146C77.0317 43.9363 76.4851 42.426 72.5083 42.426C68.5316 42.426 67.9964 43.9363 64.8082 43.9146C61.6083 43.9363 61.0731 42.426 57.1021 42.426C53.1313 42.426 52.5902 43.9363 49.3962 43.9146C46.208 43.9363 45.6611 42.426 41.6903 42.426C37.7193 42.426 37.1668 43.9363 33.9785 43.9146V47.4203C37.1668 47.4366 37.7136 45.91 41.6903 45.91C45.6669 45.91 46.208 47.4366 49.3962 47.4203C52.5959 47.4366 53.1313 45.91 57.1021 45.91" fill="#0A0D36"/>
<path d="M59.6106 52.2454C61.527 52.6816 62.4365 53.5103 64.8018 53.4938C67.99 53.5158 68.5366 51.9837 72.5076 51.9837C76.4786 51.9837 77.0253 53.5103 80.2193 53.4938V49.9881C77.031 50.0101 76.4844 48.4998 72.5076 48.4998C68.5309 48.4998 67.99 50.0046 64.8018 49.9881C62.235 50.0046 61.3774 49.0396 59.0869 48.6524L59.6106 52.2454Z" fill="#0A0D36"/>
<path d="M49.3905 53.4938C51.7558 53.5103 52.665 52.6761 54.5814 52.2454L55.1051 48.6578C52.8146 49.0395 51.963 50.01 49.3905 49.9935C46.2022 50.0154 45.6554 48.5051 41.6846 48.5051C37.7136 48.5051 37.161 50.01 33.9785 49.9935V53.4992C37.1668 53.5211 37.7136 51.9891 41.6846 51.9891C45.6554 51.9891 46.2022 53.5157 49.3905 53.4992" fill="#0A0D36"/>
<path d="M60.5374 58.5752C61.6192 58.9296 62.4538 59.3603 63.7428 59.5129L65.9642 55.9964C65.6191 56.0401 65.2391 56.0672 64.8133 56.0618C62.6149 56.0781 61.6768 55.3694 60.0137 54.9224L60.5374 58.5752Z" fill="#0A0D36"/>
<path d="M70.707 58.1881C71.225 58.1118 71.8177 58.0629 72.514 58.0629C76.485 58.0629 77.0317 59.5895 80.2199 59.573V56.0619C77.0317 56.0836 76.485 54.5735 72.514 54.5735C72.1801 54.5735 71.8694 54.5844 71.5759 54.6061L70.707 58.1881Z" fill="#0A0D36"/>
<path d="M43.4857 58.188L42.6167 54.6115C42.3289 54.5897 42.0182 54.5789 41.6845 54.5789C37.7135 54.5789 37.1609 56.0835 33.9727 56.0672V59.5729C37.1609 59.5894 37.7077 58.0628 41.6845 58.0628C42.3808 58.0628 42.9735 58.1117 43.4915 58.1882" fill="#0A0D36"/>
<path d="M50.4548 59.5129C51.744 59.3602 52.5727 58.9295 53.6605 58.5752L54.1899 54.9277C52.5266 55.3693 51.5887 56.078 49.3902 56.0672C48.9643 56.0672 48.5845 56.0454 48.2334 56.0017L50.4548 59.5129Z" fill="#0A0D36"/>
</svg>
