<svg width="193" height="179" viewBox="0 0 193 179" fill="none" xmlns="http://www.w3.org/2000/svg">
<path d="M100.081 20.4414L103.999 26.5441C105.346 28.6176 108.378 29.0707 110.336 27.482L116.092 22.7684C118.478 20.8385 122.213 21.974 122.917 24.8138L124.6 31.7407C125.183 34.0957 127.907 35.4028 130.325 34.4369L137.366 31.655C140.273 30.4915 143.457 32.6488 143.182 35.5725L142.476 42.6411C142.233 45.0557 144.406 47.0713 147.008 46.8439L154.629 46.1913C157.782 45.9358 160.077 48.8874 158.853 51.5855L155.854 58.1153C154.814 60.3285 156.221 62.8849 158.763 63.4237L166.231 64.9844C169.323 65.6389 170.548 69.1014 168.435 71.3165L163.385 76.653C161.67 78.4709 162.16 81.2809 164.394 82.5301L170.976 86.1642C173.7 87.6689 173.7 91.303 170.976 92.8077L164.394 96.4418C162.16 97.6911 161.67 100.501 163.385 102.319L168.435 107.655C170.516 109.871 169.291 113.333 166.231 113.986L158.763 115.548C156.221 116.087 154.814 118.614 155.854 120.857L158.853 127.386C160.11 130.084 157.782 133.036 154.629 132.781L147.008 132.128C144.406 131.901 142.233 133.916 142.476 136.329L143.182 143.399C143.457 146.323 140.273 148.452 137.366 147.317L130.325 144.535C127.937 143.569 125.183 144.874 124.6 147.231L122.917 154.158C122.213 157.026 118.478 158.161 116.092 156.204L110.336 151.518C108.378 149.929 105.346 150.382 103.999 152.456L100.081 158.559C98.4582 161.085 94.5419 161.085 92.9195 158.559L89.0012 152.456C87.6542 150.382 84.6225 149.929 82.6643 151.518L76.9085 156.259C74.5221 158.189 70.7868 157.054 70.0831 154.216L68.4004 147.289C67.8174 144.932 65.0933 143.625 62.6747 144.591L55.6343 147.373C52.7272 148.536 49.5427 146.379 49.8181 143.455L50.5238 136.387C50.767 133.974 48.5938 131.958 45.9923 132.184L38.3407 132.809C35.1863 133.064 32.8904 130.112 34.1148 127.414L37.1163 120.885C38.1557 118.671 36.7484 116.115 34.2072 115.576L26.7385 114.015C23.6465 113.361 22.4222 109.898 24.5351 107.683L29.5853 102.347C31.3002 100.529 30.8096 97.719 28.574 96.4697L22.0241 92.8357C19.3 91.331 19.3 87.6969 22.0241 86.1922L28.6062 82.5581C30.8398 81.3088 31.3303 78.4989 29.6154 76.6809L24.5351 71.3445C22.4523 69.1294 23.6767 65.6668 26.7385 65.0142L34.2072 63.4517C36.7484 62.9128 38.1557 60.3863 37.1163 58.1432L34.1148 51.6135C32.8603 48.9154 35.1863 45.9638 38.3407 46.2192L45.9621 46.8718C48.5636 47.0993 50.7369 45.0837 50.4916 42.6709L49.8181 35.5725C49.5427 32.6488 52.7272 30.5194 55.6343 31.655L62.6747 34.4369C65.0631 35.4028 67.8174 34.0957 68.4004 31.7407L70.0831 24.8138C70.7868 21.9461 74.5221 20.8105 76.9085 22.7684L82.6643 27.4541C84.6225 29.0427 87.6542 28.5896 89.0012 26.5162L92.9195 20.4134C94.5419 17.9149 98.4582 17.9149 100.081 20.4414Z" fill="#033272"/>
<mask id="mask0_102_749" style="mask-type:alpha" maskUnits="userSpaceOnUse" x="64" y="61" width="37" height="57">
<path d="M64.0358 61.1899H100.36V117.754H64.0358V61.1899Z" fill="white"/>
</mask>
<g mask="url(#mask0_102_749)">
<path d="M84.1641 115.934H98.1284V103.531H93.1145C92.5737 103.531 92.1354 103.125 92.1354 102.623V81.4487H89.2826C88.7398 81.4487 88.3015 81.0422 88.3015 80.5388V68.4283C88.3015 67.9268 88.7398 67.5184 89.2826 67.5184H93.1305V63.0956C92.2942 63.0863 91.4297 63.0938 90.5472 63.118C87.9015 63.1944 85.6377 63.5785 83.6233 64.2964C80.5795 65.3816 78.1409 66.7968 76.1727 68.6222C74.9081 69.7951 73.9351 71.2383 73.2837 72.9164C72.9359 73.8132 72.6243 74.7213 72.3127 75.6312L71.5749 77.7214C71.3577 78.3144 71.1406 78.9054 70.9617 79.5077C70.5877 80.7793 70.6199 81.7265 71.0723 82.5768C71.2653 82.9404 71.3899 83.3133 71.4944 83.6601C71.7739 84.5868 71.595 85.493 70.9938 86.2146C69.9364 87.4825 68.9694 88.866 68.0365 90.2029L67.3731 91.1483C67.2042 91.3888 67.0193 91.6182 66.8303 91.8475C66.6775 92.034 66.5247 92.2185 66.386 92.4143C66.0362 92.9066 66.2091 93.1639 66.2734 93.2627C66.4342 93.5051 66.7458 93.7438 67.0273 93.9452C67.3731 94.1913 67.8737 94.3106 68.4044 94.4355C69.5443 94.7078 70.0429 95.4014 69.874 96.3617C69.8157 96.7047 69.7072 97.2156 69.4498 97.6818C69.3795 97.8571 69.5283 98.381 69.7253 98.5022C69.9122 98.6197 70.0851 98.7502 70.246 98.8751L70.4148 99.0019C70.7988 99.2797 70.9014 99.7776 70.6601 100.169L70.5033 100.413C70.4289 100.523 70.3565 100.628 70.3043 100.74C70.256 100.848 70.2098 100.947 70.437 101.198C70.6762 101.463 70.8531 101.748 71.0119 102L71.1306 102.188C71.6372 102.977 71.3879 103.762 71.3055 104.02C71.0481 104.825 70.9637 105.487 71.0401 106.104C71.2029 107.398 71.9327 108.194 73.338 108.61C74.305 108.895 75.3464 108.935 76.4481 108.976L77.2905 109.004C78.2374 109.032 79.2165 109.061 80.2096 109.252C81.4098 109.483 82.3829 109.999 83.1046 110.786C83.6112 111.338 83.8464 111.925 83.8022 112.531C83.7158 113.659 83.9168 114.773 84.1641 115.934ZM99.1075 117.752H83.3338C82.8191 117.752 82.3929 117.387 82.3547 116.911L82.3487 116.775C82.0431 115.373 81.7315 113.93 81.8481 112.405C81.8561 112.293 81.7757 112.143 81.6129 111.966C81.1726 111.485 80.5855 111.181 79.8115 111.032C78.9853 110.874 78.1308 110.849 77.2281 110.822L76.3697 110.794C75.1856 110.749 73.9612 110.702 72.7429 110.342C70.6078 109.71 69.3453 108.317 69.094 106.313C68.9854 105.442 69.092 104.551 69.4277 103.501C69.5142 103.227 69.474 103.162 69.4478 103.121L69.3151 102.912C69.1985 102.724 69.084 102.532 68.9352 102.367C68.1109 101.456 68.2436 100.594 68.5009 100.031C68.513 100.003 68.5251 99.9771 68.5391 99.951C67.6003 99.2909 67.1861 97.7918 67.7068 96.852C67.8134 96.6581 67.8777 96.4045 67.9179 96.1976H67.9159C67.2525 96.0391 66.5006 95.8601 65.8371 95.3883C65.4109 95.0863 64.9324 94.7115 64.6047 94.2174C64.0358 93.3634 64.0901 92.3397 64.7515 91.4112C64.9143 91.1837 65.0933 90.9656 65.2702 90.7474C65.429 90.5535 65.5898 90.3596 65.7326 90.1545L66.392 89.2147C67.347 87.8461 68.3361 86.4309 69.4438 85.1014C69.667 84.8348 69.7192 84.5234 69.6067 84.1486C69.5283 83.8876 69.4378 83.6116 69.3151 83.3804C68.4346 81.7228 68.7542 80.1025 69.0719 79.0285C69.2609 78.3889 69.4901 77.7624 69.7213 77.1359L70.445 75.0793C70.7647 74.147 71.0843 73.2166 71.4402 72.2992C72.1921 70.3694 73.3179 68.6987 74.7895 67.3357C76.9547 65.3275 79.6145 63.7781 82.9216 62.5996C85.1432 61.8091 87.618 61.3839 90.4868 61.3C91.7474 61.2627 92.9798 61.2665 94.1438 61.3C94.6725 61.3187 95.0907 61.7196 95.0907 62.2099V68.4283C95.0907 68.9299 94.6524 69.3382 94.1096 69.3382H90.2617V79.6307H93.1145C93.6553 79.6307 94.0935 80.0372 94.0935 80.5388V101.713H99.1075C99.6483 101.713 100.089 102.121 100.089 102.623V116.844C100.089 117.346 99.6483 117.752 99.1075 117.752Z" fill="white"/>
</g>
<path d="M116.566 66.0604H94.1116C93.5688 66.0604 93.1305 65.6539 93.1305 65.1505C93.1305 64.6489 93.5688 64.2424 94.1116 64.2424H116.566C117.107 64.2424 117.545 64.6489 117.545 65.1505C117.545 65.6539 117.107 66.0604 116.566 66.0604Z" fill="white"/>
<path d="M109.857 83.9212H94.1096C93.5688 83.9212 93.1305 83.5148 93.1305 83.0132C93.1305 82.5116 93.5688 82.1033 94.1096 82.1033H109.857C110.398 82.1033 110.836 82.5116 110.836 83.0132C110.836 83.5148 110.398 83.9212 109.857 83.9212Z" fill="white"/>
<path d="M117.756 92.8525H94.1116C93.5688 92.8525 93.1305 92.4442 93.1305 91.9426C93.1305 91.4411 93.5688 91.0327 94.1116 91.0327H117.756C118.297 91.0327 118.735 91.4411 118.735 91.9426C118.735 92.4442 118.297 92.8525 117.756 92.8525Z" fill="white"/>
<path d="M108.233 103.527H94.001C93.4602 103.527 93.02 103.121 93.02 102.617C93.02 102.116 93.4602 101.709 94.001 101.709H108.233C108.776 101.709 109.214 102.116 109.214 102.617C109.214 103.121 108.776 103.527 108.233 103.527Z" fill="white"/>
<path d="M121.327 111.851H99.1075C98.5667 111.851 98.1284 111.444 98.1284 110.941C98.1284 110.439 98.5667 110.033 99.1075 110.033H121.327C121.867 110.033 122.306 110.439 122.306 110.941C122.306 111.444 121.867 111.851 121.327 111.851Z" fill="white"/>
<path d="M103.667 74.9918H89.2826C88.7398 74.9918 88.3015 74.5853 88.3015 74.0837C88.3015 73.5803 88.7398 73.1738 89.2826 73.1738H103.667C104.208 73.1738 104.648 73.5803 104.648 74.0837C104.648 74.5853 104.208 74.9918 103.667 74.9918Z" fill="white"/>
<mask id="mask1_102_749" style="mask-type:alpha" maskUnits="userSpaceOnUse" x="115" y="61" width="10" height="9">
<path d="M115.285 61.1899H124.549V69.2132H115.285V61.1899Z" fill="white"/>
</mask>
<g mask="url(#mask1_102_749)">
<path d="M119.853 63.0099C118.58 63.0099 117.545 63.972 117.545 65.1504C117.545 66.3326 118.58 67.2928 119.853 67.2928C121.126 67.2928 122.161 66.3326 122.161 65.1504C122.161 63.972 121.126 63.0099 119.853 63.0099ZM119.853 69.1108C117.501 69.1108 115.585 67.3338 115.585 65.1504C115.585 62.9688 117.501 61.1919 119.853 61.1919C122.205 61.1919 124.121 62.9688 124.121 65.1504C124.121 67.3338 122.205 69.1108 119.853 69.1108Z" fill="white"/>
</g>
<path d="M106.956 71.9393C105.684 71.9393 104.648 72.9014 104.648 74.0836C104.648 75.262 105.684 76.2241 106.956 76.2241C108.229 76.2241 109.264 75.262 109.264 74.0836C109.264 72.9014 108.229 71.9393 106.956 71.9393ZM106.956 78.0421C104.602 78.0421 102.688 76.2651 102.688 74.0836C102.688 71.8983 104.602 70.1213 106.956 70.1213C109.308 70.1213 111.224 71.8983 111.224 74.0836C111.224 76.2651 109.308 78.0421 106.956 78.0421Z" fill="white"/>
<path d="M113.144 80.8707C111.872 80.8707 110.836 81.8328 110.836 83.0131C110.836 84.1934 111.872 85.1555 113.144 85.1555C114.417 85.1555 115.452 84.1934 115.452 83.0131C115.452 81.8328 114.417 80.8707 113.144 80.8707ZM113.144 86.9735C110.792 86.9735 108.876 85.1965 108.876 83.0131C108.876 80.8297 110.792 79.0527 113.144 79.0527C115.498 79.0527 117.412 80.8297 117.412 83.0131C117.412 85.1965 115.498 86.9735 113.144 86.9735Z" fill="white"/>
<path d="M121.043 89.802C119.771 89.802 118.735 90.7623 118.735 91.9426C118.735 93.1228 119.771 94.085 121.043 94.085C122.316 94.085 123.351 93.1228 123.351 91.9426C123.351 90.7623 122.316 89.802 121.043 89.802ZM121.043 95.9029C118.691 95.9029 116.775 94.126 116.775 91.9426C116.775 89.7591 118.691 87.9822 121.043 87.9822C123.395 87.9822 125.311 89.7591 125.311 91.9426C125.311 94.126 123.395 95.9029 121.043 95.9029Z" fill="white"/>
<path d="M111.522 100.477C110.249 100.477 109.214 101.437 109.214 102.617C109.214 103.8 110.249 104.762 111.522 104.762C112.794 104.762 113.83 103.8 113.83 102.617C113.83 101.437 112.794 100.477 111.522 100.477ZM111.522 106.58C109.17 106.58 107.254 104.803 107.254 102.617C107.254 100.436 109.17 98.6589 111.522 98.6589C113.876 98.6589 115.79 100.436 115.79 102.617C115.79 104.803 113.876 106.58 111.522 106.58Z" fill="white"/>
<mask id="mask2_102_749" style="mask-type:alpha" maskUnits="userSpaceOnUse" x="119" y="106" width="10" height="10">
<path d="M119.917 106.923H128.884V115.037H119.917V106.923Z" fill="white"/>
</mask>
<g mask="url(#mask2_102_749)">
<path d="M124.614 108.8C123.341 108.8 122.306 109.76 122.306 110.943C122.306 112.123 123.341 113.083 124.614 113.083C125.886 113.083 126.922 112.123 126.922 110.943C126.922 109.76 125.886 108.8 124.614 108.8ZM124.614 114.901C122.259 114.901 120.346 113.124 120.346 110.943C120.346 108.759 122.259 106.982 124.614 106.982C126.968 106.982 128.882 108.759 128.882 110.943C128.882 113.124 126.968 114.901 124.614 114.901Z" fill="white"/>
</g>
<path d="M72.1566 127.1L66.9295 130.463L65.9726 129.8L67.4603 125.645L63.5601 128.122L62.5951 127.45L64.6216 121.849L65.5544 122.498L64.0104 126.742L68.0152 124.213L68.8435 124.788L67.2914 129.061L71.2962 126.503L72.1566 127.1Z" fill="white"/>
<path d="M74.2628 127.964L75.2599 128.448L72.4534 133.416L71.4562 132.931L74.2628 127.964Z" fill="white"/>
<path d="M77.8988 129.677L80.3837 130.512C80.9888 130.717 81.4854 131.008 81.8714 131.384C82.2574 131.763 82.5007 132.196 82.6032 132.682C82.7098 133.165 82.6615 133.67 82.4585 134.196C82.2494 134.718 81.9357 135.132 81.5176 135.442C81.1034 135.755 80.6189 135.942 80.062 136.001C79.5031 136.061 78.9221 135.988 78.317 135.785L75.8321 134.95L77.8988 129.677ZM78.5904 134.942C79.0086 135.08 79.4046 135.129 79.7806 135.084C80.1545 135.043 80.4822 134.914 80.7617 134.696C81.0391 134.483 81.2522 134.196 81.397 133.838C81.5357 133.471 81.5739 133.122 81.5095 132.794C81.4452 132.462 81.2844 132.168 81.027 131.914C80.7697 131.66 80.432 131.465 80.0138 131.325L78.6306 130.855L77.2072 134.472L78.5904 134.942Z" fill="white"/>
<path d="M86.5473 137.979C86.0909 137.899 85.6587 137.759 85.2526 137.561C84.8505 137.367 84.5469 137.147 84.3439 136.898L84.8827 136.174C85.0918 136.398 85.3612 136.599 85.6949 136.778C86.0266 136.953 86.3704 137.069 86.7242 137.129C87.1685 137.209 87.5123 137.203 87.7536 137.114C87.9988 137.021 88.1436 136.866 88.1878 136.651C88.22 136.493 88.1838 136.351 88.0833 136.226C87.9868 136.103 87.8501 135.995 87.6731 135.906C87.4962 135.812 87.2509 135.7 86.9413 135.57C86.5111 135.391 86.1693 135.227 85.912 135.078C85.6547 134.929 85.4456 134.731 85.2848 134.481C85.128 134.233 85.0877 133.927 85.1641 133.564C85.2224 133.262 85.3672 133.001 85.5984 132.781C85.8276 132.562 86.1372 132.411 86.5232 132.326C86.9132 132.242 87.3716 132.247 87.8983 132.34C88.2562 132.406 88.6019 132.512 88.9357 132.661C89.2674 132.807 89.5428 132.978 89.764 133.176L89.2573 133.907C89.0261 133.724 88.7769 133.569 88.5095 133.444C88.2401 133.321 87.9747 133.235 87.7133 133.191C87.2731 133.112 86.9333 133.122 86.6921 133.221C86.4548 133.321 86.3141 133.485 86.2658 133.713C86.2337 133.868 86.2679 134.007 86.3704 134.13C86.4709 134.25 86.6116 134.358 86.7886 134.451C86.9655 134.541 87.2027 134.651 87.5043 134.779C87.9264 134.949 88.2702 135.111 88.5336 135.264C88.7949 135.419 89.0081 135.62 89.1689 135.868C89.3297 136.113 89.3719 136.413 89.2976 136.771C89.2332 137.08 89.0844 137.341 88.8553 137.554C88.6241 137.766 88.3104 137.914 87.9144 137.994C87.5224 138.078 87.066 138.072 86.5473 137.979Z" fill="white"/>
<path d="M99.9316 132.97C100.708 132.921 101.415 133.026 102.055 133.283C102.692 133.537 103.201 133.921 103.583 134.432C103.969 134.939 104.188 135.532 104.242 136.207C104.294 136.893 104.19 137.443 103.928 137.855C103.665 138.263 103.277 138.487 102.762 138.526C102.483 138.541 102.244 138.496 102.047 138.392C101.848 138.284 101.703 138.12 101.612 137.9C101.301 138.388 100.802 138.657 100.117 138.705C99.7246 138.731 99.3627 138.668 99.031 138.519C98.7033 138.366 98.4379 138.138 98.2348 137.84C98.0298 137.542 97.9152 137.197 97.8891 136.803C97.8569 136.416 97.9172 136.063 98.074 135.744C98.2288 135.422 98.456 135.163 98.7576 134.969C99.0631 134.775 99.4109 134.667 99.803 134.64C100.103 134.616 100.378 134.646 100.631 134.73C100.883 134.81 101.098 134.937 101.275 135.11L101.234 134.588L102.199 134.529L102.417 137.243C102.433 137.437 102.483 137.575 102.569 137.654C102.66 137.734 102.772 137.769 102.907 137.758C103.142 137.739 103.311 137.601 103.414 137.348C103.514 137.094 103.546 136.734 103.51 136.266C103.466 135.7 103.289 135.213 102.979 134.805C102.668 134.392 102.252 134.081 101.733 133.872C101.212 133.663 100.627 133.581 99.9799 133.626C99.3245 133.671 98.7515 133.839 98.259 134.126C97.7704 134.415 97.4086 134.795 97.1733 135.267C96.9361 135.735 96.8396 136.257 96.8838 136.833C96.9321 137.415 97.109 137.926 97.4146 138.362C97.7202 138.8 98.1323 139.127 98.653 139.347C99.1717 139.565 99.7587 139.652 100.414 139.608C100.692 139.593 100.973 139.544 101.259 139.466C101.548 139.386 101.813 139.28 102.055 139.145L102.336 139.772C102.095 139.906 101.805 140.014 101.468 140.1C101.13 140.189 100.796 140.244 100.47 140.264C99.6602 140.318 98.9345 140.208 98.2911 139.936C97.6518 139.667 97.1372 139.268 96.7471 138.743C96.3611 138.211 96.14 137.594 96.0877 136.893C96.0334 136.197 96.1561 135.563 96.4576 134.991C96.7632 134.415 97.2156 133.947 97.8167 133.589C98.4158 133.231 99.1214 133.026 99.9316 132.97ZM100.237 137.915C100.607 137.89 100.901 137.758 101.122 137.519C101.347 137.277 101.445 136.958 101.419 136.565C101.387 136.182 101.238 135.89 100.977 135.685C100.72 135.476 100.406 135.384 100.036 135.409C99.6602 135.435 99.3627 135.569 99.1436 135.811C98.9224 136.05 98.8299 136.36 98.8621 136.736C98.8882 137.124 99.031 137.426 99.2883 137.639C99.5456 137.848 99.8613 137.941 100.237 137.915Z" fill="white"/>
<path d="M114.531 135.91C113.743 136.175 113.047 136.177 112.448 135.918C111.847 135.66 111.397 135.148 111.097 134.381L109.939 131.405L110.993 131.047L112.143 133.986C112.545 135.021 113.228 135.377 114.193 135.053C115.152 134.73 115.432 134.051 115.03 133.016L113.88 130.078L114.925 129.727L116.083 132.703C116.383 133.47 116.393 134.131 116.115 134.687C115.836 135.239 115.307 135.647 114.531 135.91Z" fill="white"/>
<path d="M122.598 129.015C122.946 128.946 123.268 128.97 123.563 129.089C123.863 129.209 124.106 129.423 124.295 129.731C124.556 130.154 124.581 130.572 124.368 130.984C124.152 131.398 123.71 131.78 123.041 132.132L120.427 133.512L117.444 128.635L119.912 127.337C120.528 127.009 121.072 126.871 121.545 126.919C122.021 126.969 122.381 127.191 122.622 127.583C122.771 127.822 122.842 128.068 122.832 128.321C122.819 128.571 122.743 128.802 122.598 129.015ZM118.851 128.828L119.679 130.178L121.062 129.447C121.4 129.268 121.625 129.075 121.738 128.866C121.85 128.657 121.838 128.441 121.706 128.217C121.571 127.999 121.376 127.879 121.119 127.859C120.865 127.84 120.572 127.919 120.234 128.098L118.851 128.828ZM122.55 131.446C123.306 131.049 123.539 130.617 123.25 130.149C122.96 129.682 122.438 129.647 121.682 130.044L120.105 130.879L120.974 132.282L122.55 131.446Z" fill="white"/>
<path d="M130.128 127.668C129.649 128.022 129.135 128.246 128.584 128.339C128.037 128.428 127.506 128.384 126.992 128.205C126.477 128.026 126.035 127.725 125.665 127.302C125.291 126.87 125.066 126.403 124.989 125.9C124.909 125.393 124.977 124.901 125.19 124.423C125.399 123.946 125.743 123.528 126.22 123.17C126.606 122.883 127.012 122.682 127.434 122.566C127.862 122.447 128.29 122.428 128.72 122.506L128.584 123.409C127.944 123.331 127.378 123.476 126.879 123.849C126.557 124.093 126.328 124.375 126.187 124.692C126.049 125.011 126.008 125.341 126.067 125.684C126.121 126.027 126.28 126.347 126.541 126.646C126.794 126.94 127.094 127.149 127.442 127.272C127.79 127.392 128.15 127.425 128.519 127.369C128.889 127.31 129.235 127.159 129.557 126.914C130.055 126.541 130.325 126.055 130.369 125.452L131.366 125.535C131.35 125.928 131.233 126.308 131.02 126.676C130.811 127.045 130.514 127.375 130.128 127.668Z" fill="white"/>
<path d="M44.1337 79.498L49.9076 82.0488L49.7629 83.1526L45.1228 84.0178L49.3849 85.9346L49.2402 87.0459L42.9677 88.1945L43.1124 87.113L47.8731 86.2702L43.4904 84.2863L43.6191 83.3242L48.4119 82.459L44.0051 80.49L44.1337 79.498Z" fill="white"/>
<path d="M51.8434 75.8037C51.6444 76.3462 51.3388 76.7937 50.9267 77.1462C50.5145 77.5004 50.034 77.7316 49.4872 77.8398C48.9404 77.9442 48.3895 77.9106 47.8306 77.7354C47.2737 77.5564 46.8174 77.2711 46.4635 76.8777C46.1057 76.4805 45.8805 76.0255 45.788 75.5128C45.6915 74.9963 45.7438 74.4667 45.9408 73.9242C46.1459 73.3834 46.4555 72.9322 46.8737 72.5742C47.2878 72.2162 47.7643 71.9887 48.3051 71.888C48.8419 71.7836 49.3907 71.8209 49.9536 71.9999C50.5165 72.1789 50.9769 72.4623 51.3368 72.8502C51.6946 73.238 51.9198 73.6929 52.0123 74.215C52.1027 74.7334 52.0465 75.2629 51.8434 75.8037ZM50.9106 75.5053C51.0433 75.1529 51.0754 74.808 51.0071 74.4686C50.9427 74.1255 50.7839 73.8253 50.5326 73.5662C50.2813 73.3032 49.9657 73.1112 49.5837 72.9919C49.2037 72.8688 48.8278 72.839 48.4579 72.9024C48.0879 72.962 47.7663 73.1093 47.4929 73.3424C47.2194 73.5773 47.0164 73.8701 46.8817 74.2225C46.753 74.5768 46.7209 74.9217 46.7852 75.2592C46.8495 75.593 47.0084 75.8913 47.2597 76.1542C47.5069 76.4134 47.8206 76.6054 48.2005 76.7285C48.5825 76.8478 48.9605 76.8777 49.3344 76.818C49.7043 76.7546 50.03 76.6073 50.3074 76.3779C50.5809 76.1505 50.7819 75.8596 50.9106 75.5053Z" fill="white"/>
<path d="M56.579 66.4034L53.0889 64.5537L54.9787 67.6937L54.7294 68.0964L50.9016 68.1859L54.3434 70.0207L53.8046 70.8858L48.5373 68.0815L49.0037 67.3357L53.7001 67.2611L51.3841 63.4946L51.8424 62.7488L57.1097 65.5457L56.579 66.4034Z" fill="white"/>
<path d="M61.0266 59.6166L61.7583 60.1834L58.8392 63.4278L54.1831 59.818L57.0218 56.6631L57.7456 57.2299L55.6306 59.5793L56.8449 60.5116L58.7266 58.4233L59.4343 58.9752L57.5526 61.0635L58.8312 62.0555L61.0266 59.6166Z" fill="white"/>
<path d="M63.6274 50.9734L67.5919 55.2396L66.8923 55.7989L61.6732 54.9412L64.3592 57.8276L63.5067 58.5063L59.5422 54.2401L60.2499 53.6733L65.4689 54.531L62.783 51.6446L63.6274 50.9734Z" fill="white"/>
<path d="M70.4701 46.8481L71.4592 46.3484L74.3542 51.3007L73.3651 51.8004L70.4701 46.8481Z" fill="white"/>
<path d="M79.8848 42.9834L82.048 48.2415L81.1876 48.5473L76.5877 46.0935L78.0513 49.6511L77.0059 50.0241L74.8427 44.7659L75.7192 44.4601L80.303 46.9065L78.8394 43.3489L79.8848 42.9834Z" fill="white"/>
<path d="M87.9518 41.1693L90.5975 40.9082C91.2408 40.8486 91.8238 40.912 92.3505 41.0947C92.8813 41.2793 93.3075 41.5702 93.6292 41.9673C93.9508 42.3663 94.1438 42.8399 94.2082 43.3919C94.2725 43.9438 94.1921 44.4472 93.9669 44.8984C93.7418 45.3515 93.3899 45.7189 92.9135 46.0023C92.441 46.282 91.8841 46.4498 91.2408 46.5094L88.5951 46.7705L87.9518 41.1693ZM91.088 45.6368C91.5263 45.5921 91.9042 45.4765 92.2219 45.2863C92.5435 45.0979 92.7768 44.85 92.9215 44.5404C93.0703 44.2328 93.1246 43.8878 93.0823 43.5037C93.0381 43.1215 92.9074 42.7933 92.6883 42.5192C92.4732 42.247 92.1897 42.0475 91.8359 41.9226C91.4861 41.7995 91.092 41.7585 90.6538 41.8032L89.1821 41.9449L89.6164 45.7785L91.088 45.6368Z" fill="white"/>
<path d="M100.99 45.1302L97.958 44.9512L97.2744 46.2191L96.1164 46.152L99.2286 40.7L100.338 40.7671L102.678 46.5473L101.504 46.4727L100.99 45.1302ZM100.668 44.2949L99.703 41.774L98.3922 44.1606L100.668 44.2949Z" fill="white"/>
<path d="M107.009 42.5335L105.047 42.1308L105.248 41.2656L110.282 42.2874L110.081 43.1526L108.119 42.7573L107.018 47.3889L105.908 47.1652L107.009 42.5335Z" fill="white"/>
<path d="M115.205 48.4713L112.374 47.4569L111.313 48.4713L110.227 48.0834L114.964 43.7427L115.993 44.1156L116.371 50.2762L115.261 49.8883L115.205 48.4713ZM115.181 47.5763L115.06 44.9062L113.058 46.8155L115.181 47.5763Z" fill="white"/>
<path d="M123.049 54.0433C122.663 53.799 122.327 53.51 122.044 53.1781C121.758 52.8444 121.573 52.5293 121.489 52.2309L122.309 51.7611C122.399 52.0501 122.558 52.3353 122.783 52.6188C123.013 52.9022 123.278 53.1371 123.58 53.3273C123.949 53.566 124.265 53.6872 124.528 53.6928C124.796 53.6965 124.997 53.6107 125.132 53.4317C125.228 53.3012 125.256 53.1595 125.22 53.0066C125.182 52.8574 125.103 52.7083 124.987 52.5591C124.868 52.4099 124.693 52.2197 124.464 51.9848C124.142 51.6622 123.895 51.3844 123.724 51.1495C123.551 50.9108 123.447 50.6498 123.411 50.3663C123.379 50.0792 123.475 49.7827 123.7 49.4788C123.893 49.2215 124.142 49.035 124.448 48.9194C124.754 48.8057 125.101 48.7833 125.493 48.8523C125.89 48.9232 126.308 49.0966 126.748 49.3744C127.048 49.5739 127.319 49.8032 127.56 50.0606C127.805 50.3197 127.986 50.5826 128.099 50.8511L127.311 51.3285C127.182 51.0749 127.021 50.8418 126.828 50.6274C126.635 50.4092 126.428 50.2302 126.209 50.0904C125.839 49.8573 125.522 49.7398 125.26 49.7398C124.997 49.7398 124.796 49.8349 124.657 50.0233C124.555 50.1575 124.522 50.2992 124.561 50.4484C124.603 50.5976 124.683 50.7467 124.802 50.8959C124.925 51.0413 125.099 51.2315 125.325 51.4702C125.634 51.7834 125.875 52.0594 126.048 52.2981C126.225 52.5367 126.332 52.7978 126.37 53.0812C126.406 53.3683 126.314 53.6648 126.089 53.9687C125.9 54.2223 125.654 54.4032 125.349 54.5132C125.043 54.6213 124.691 54.6418 124.295 54.5728C123.897 54.502 123.483 54.3267 123.049 54.0433Z" fill="white"/>
<path d="M128.966 58.5314C128.515 58.1436 128.204 57.6998 128.033 57.2038C127.86 56.706 127.834 56.2081 127.953 55.7121C128.075 55.2162 128.341 54.7649 128.749 54.3622C129.155 53.9594 129.625 53.6891 130.156 53.5492C130.687 53.4112 131.222 53.4075 131.764 53.5418C132.311 53.676 132.81 53.9408 133.26 54.3323C133.618 54.6456 133.887 54.9924 134.064 55.3691C134.245 55.742 134.326 56.1335 134.305 56.54H133.308C133.312 55.9433 133.083 55.4399 132.617 55.026C132.315 54.7631 131.983 54.5897 131.62 54.5039C131.26 54.4144 130.9 54.4218 130.542 54.5263C130.182 54.6269 129.86 54.8153 129.577 55.0931C129.298 55.3672 129.115 55.673 129.03 56.0105C128.944 56.3424 128.958 56.6761 129.07 57.0099C129.183 57.3418 129.388 57.6401 129.69 57.9049C130.156 58.317 130.715 58.4978 131.37 58.4493L131.419 59.3816C130.984 59.4208 130.554 59.3686 130.132 59.225C129.714 59.0796 129.324 58.8484 128.966 58.5314Z" fill="white"/>
<path d="M137.035 58.1755L137.751 58.981L133.062 62.561L132.347 61.7555L137.035 58.1755Z" fill="white"/>
<path d="M138.163 67.8566L137.367 68.3339L134.915 64.7763L140.029 61.7407L142.418 65.2014L141.621 65.6787L139.844 63.0981L138.509 63.8813L140.093 66.171L139.321 66.6334L137.737 64.3437L136.322 65.179L138.163 67.8566Z" fill="white"/>
<path d="M146.282 72.7628L140.701 74.9854L140.339 74.1948L142.784 69.8317L139.012 71.3382L138.57 70.391L144.151 68.1685L144.521 68.959L142.06 73.3147L145.839 71.8081L146.282 72.7628Z" fill="white"/>
<path d="M142.163 80.0826C142.012 79.5251 142.01 78.9956 142.155 78.494C142.299 77.9906 142.567 77.5617 142.959 77.2037C143.355 76.8457 143.843 76.6033 144.422 76.4728C145.001 76.3441 145.552 76.3572 146.079 76.5101C146.61 76.6592 147.062 76.924 147.438 77.3081C147.818 77.6904 148.081 78.1602 148.226 78.7177C148.343 79.1652 148.367 79.5904 148.299 79.9931C148.228 80.3996 148.065 80.7707 147.808 81.1044L146.972 80.5972C147.33 80.0994 147.432 79.5605 147.277 78.9788C147.181 78.6059 147.006 78.2889 146.755 78.0316C146.501 77.778 146.196 77.6027 145.838 77.5095C145.478 77.4144 145.098 77.4125 144.696 77.502C144.298 77.5915 143.964 77.7519 143.691 77.9868C143.421 78.2255 143.236 78.5126 143.136 78.852C143.039 79.1895 143.039 79.5456 143.136 79.9185C143.291 80.5003 143.653 80.9329 144.221 81.2163L143.715 82.0292C143.329 81.8391 143.001 81.578 142.734 81.2461C142.464 80.918 142.275 80.5301 142.163 80.0826Z" fill="white"/>
<path d="M144.462 88.5364L143.513 88.6109L143.135 84.4044L149.182 83.9346L149.552 88.0292L148.611 88.1038L148.338 85.0459L146.761 85.1652L147.003 87.88L146.086 87.9546L145.845 85.2398L144.18 85.3666L144.462 88.5364Z" fill="white"/>
</svg>
